<?xml version="1.0" encoding="utf-8"?>
<!-- Generator: Adobe Illustrator 15.0.0, SVG Export Plug-In . SVG Version: 6.00 Build 0)  -->
<!DOCTYPE svg PUBLIC "-//W3C//DTD SVG 1.1//EN" "http://www.w3.org/Graphics/SVG/1.1/DTD/svg11.dtd">
<svg version="1.1" id="Layer_1" xmlns="http://www.w3.org/2000/svg" xmlns:xlink="http://www.w3.org/1999/xlink" x="0px" y="0px"
	 width="353.333px" height="84.406px" viewBox="0 0 353.333 84.406" enable-background="new 0 0 353.333 84.406"
	 xml:space="preserve">
<polygon fill="#8B7053" points="139.238,68.764 140.647,68.764 140.647,77.321 145.077,77.321 145.077,78.603 139.238,78.603 "/>
<g>
	<defs>
		<rect id="SVGID_1_" x="-44.304" y="2.927" width="446.971" height="81.479"/>
	</defs>
	<clipPath id="SVGID_2_">
		<use xlink:href="#SVGID_1_"  overflow="visible"/>
	</clipPath>
	<path clip-path="url(#SVGID_2_)" fill="#8B7053" d="M154.023,68.624c1.52,0,2.787,0.48,3.797,1.442
		c1.011,0.963,1.517,2.171,1.517,3.62c0,1.452-0.51,2.653-1.531,3.604c-1.02,0.949-2.308,1.426-3.86,1.426
		c-1.483,0-2.719-0.477-3.706-1.426c-0.988-0.951-1.481-2.143-1.481-3.574c0-1.47,0.498-2.688,1.492-3.65
		C151.246,69.104,152.503,68.624,154.023,68.624 M154.08,69.961c-1.126,0-2.051,0.352-2.777,1.056
		c-0.725,0.705-1.087,1.605-1.087,2.699c0,1.061,0.363,1.942,1.091,2.647c0.727,0.705,1.637,1.058,2.73,1.058
		c1.098,0,2.014-0.36,2.748-1.079c0.734-0.718,1.102-1.613,1.102-2.684c0-1.042-0.368-1.92-1.102-2.631
		S155.149,69.961,154.08,69.961"/>
	<polygon clip-path="url(#SVGID_2_)" fill="#8B7053" points="171.773,68.764 173.111,68.764 173.111,78.603 171.899,78.603 
		165.321,71.026 165.321,78.603 163.998,78.603 163.998,68.764 165.139,68.764 171.773,76.409 	"/>
	<path clip-path="url(#SVGID_2_)" fill="#8B7053" d="M178.116,78.589v-9.825h3.319c1.336,0,2.396,0.2,3.174,0.602
		c0.78,0.402,1.4,0.992,1.861,1.772c0.46,0.779,0.689,1.629,0.689,2.548c0,0.658-0.126,1.287-0.38,1.889
		c-0.254,0.601-0.614,1.13-1.085,1.585c-0.478,0.47-1.034,0.823-1.669,1.063c-0.37,0.146-0.711,0.243-1.021,0.292
		c-0.311,0.05-0.902,0.074-1.774,0.074H178.116z M181.286,70.018h-1.761v7.317h1.804c0.704,0,1.251-0.048,1.642-0.144
		c0.389-0.097,0.715-0.219,0.976-0.366c0.26-0.148,0.498-0.331,0.715-0.546c0.694-0.705,1.041-1.595,1.041-2.67
		c0-1.056-0.356-1.917-1.07-2.585c-0.262-0.248-0.564-0.453-0.905-0.613c-0.341-0.159-0.663-0.265-0.97-0.316
		C182.454,70.044,181.962,70.018,181.286,70.018"/>
	<path clip-path="url(#SVGID_2_)" fill="#8B7053" d="M196.634,68.624c1.521,0,2.786,0.48,3.797,1.442
		c1.011,0.963,1.518,2.171,1.518,3.62c0,1.452-0.511,2.653-1.531,3.604c-1.021,0.949-2.307,1.426-3.86,1.426
		c-1.483,0-2.718-0.477-3.705-1.426c-0.989-0.951-1.482-2.143-1.482-3.574c0-1.47,0.497-2.688,1.491-3.65
		C193.856,69.104,195.114,68.624,196.634,68.624 M196.691,69.961c-1.127,0-2.051,0.352-2.776,1.056
		c-0.724,0.705-1.087,1.605-1.087,2.699c0,1.061,0.363,1.942,1.091,2.647s1.638,1.058,2.729,1.058c1.099,0,2.014-0.36,2.749-1.079
		c0.733-0.718,1.102-1.613,1.102-2.684c0-1.042-0.368-1.92-1.102-2.631C198.662,70.317,197.761,69.961,196.691,69.961"/>
	<polygon clip-path="url(#SVGID_2_)" fill="#8B7053" points="214.384,68.764 215.721,68.764 215.721,78.603 214.511,78.603 
		207.932,71.026 207.932,78.603 206.609,78.603 206.609,68.764 207.75,68.764 214.384,76.409 	"/>
	<polygon clip-path="url(#SVGID_2_)" fill="#FFFFFF" points="173.366,55.319 16.667,55.319 16.667,50.536 173.366,50.536 
		185,50.536 341.701,50.536 341.701,55.319 185,55.319 	"/>
	<polygon clip-path="url(#SVGID_2_)" fill="none" stroke="#8B7053" stroke-width="1.205" points="173.366,55.319 16.667,55.319 
		16.667,50.536 173.366,50.536 185,50.536 341.701,50.536 341.701,55.319 185,55.319 	"/>
	<rect x="326.862" y="50.48" clip-path="url(#SVGID_2_)" fill="#FFFFFF" width="4.835" height="4.839"/>
	
		<rect x="326.862" y="50.48" clip-path="url(#SVGID_2_)" fill="none" stroke="#8B7053" stroke-width="1.205" width="4.835" height="4.839"/>
	<rect x="336.999" y="50.48" clip-path="url(#SVGID_2_)" fill="#FFFFFF" width="4.843" height="4.839"/>
	
		<rect x="336.999" y="50.48" clip-path="url(#SVGID_2_)" fill="none" stroke="#8B7053" stroke-width="1.205" width="4.843" height="4.839"/>
	<rect x="316.852" y="50.48" clip-path="url(#SVGID_2_)" fill="#FFFFFF" width="4.836" height="4.839"/>
	
		<rect x="316.852" y="50.48" clip-path="url(#SVGID_2_)" fill="none" stroke="#8B7053" stroke-width="1.205" width="4.836" height="4.839"/>
	<rect x="306.849" y="50.48" clip-path="url(#SVGID_2_)" fill="#FFFFFF" width="4.831" height="4.839"/>
	
		<rect x="306.849" y="50.48" clip-path="url(#SVGID_2_)" fill="none" stroke="#8B7053" stroke-width="1.205" width="4.831" height="4.839"/>
	<rect x="296.842" y="50.48" clip-path="url(#SVGID_2_)" fill="#FFFFFF" width="4.833" height="4.839"/>
	
		<rect x="296.842" y="50.48" clip-path="url(#SVGID_2_)" fill="none" stroke="#8B7053" stroke-width="1.205" width="4.833" height="4.839"/>
	<rect x="286.836" y="50.48" clip-path="url(#SVGID_2_)" fill="#FFFFFF" width="4.83" height="4.839"/>
	
		<rect x="286.836" y="50.48" clip-path="url(#SVGID_2_)" fill="none" stroke="#8B7053" stroke-width="1.205" width="4.83" height="4.839"/>
	<rect x="276.831" y="50.48" clip-path="url(#SVGID_2_)" fill="#FFFFFF" width="4.836" height="4.839"/>
	
		<rect x="276.831" y="50.48" clip-path="url(#SVGID_2_)" fill="none" stroke="#8B7053" stroke-width="1.205" width="4.836" height="4.839"/>
	<rect x="266.822" y="50.482" clip-path="url(#SVGID_2_)" fill="#FFFFFF" width="4.836" height="4.837"/>
	
		<rect x="266.822" y="50.482" clip-path="url(#SVGID_2_)" fill="none" stroke="#8B7053" stroke-width="1.205" width="4.836" height="4.837"/>
	<rect x="256.812" y="50.482" clip-path="url(#SVGID_2_)" fill="#FFFFFF" width="4.836" height="4.837"/>
	
		<rect x="256.812" y="50.482" clip-path="url(#SVGID_2_)" fill="none" stroke="#8B7053" stroke-width="1.205" width="4.836" height="4.837"/>
	<rect x="246.811" y="50.482" clip-path="url(#SVGID_2_)" fill="#FFFFFF" width="4.834" height="4.837"/>
	
		<rect x="246.811" y="50.482" clip-path="url(#SVGID_2_)" fill="none" stroke="#8B7053" stroke-width="1.205" width="4.834" height="4.837"/>
	<rect x="236.804" y="50.482" clip-path="url(#SVGID_2_)" fill="#FFFFFF" width="4.837" height="4.837"/>
	
		<rect x="236.804" y="50.482" clip-path="url(#SVGID_2_)" fill="none" stroke="#8B7053" stroke-width="1.205" width="4.837" height="4.837"/>
	<rect x="226.798" y="50.482" clip-path="url(#SVGID_2_)" fill="#FFFFFF" width="4.833" height="4.837"/>
	
		<rect x="226.798" y="50.482" clip-path="url(#SVGID_2_)" fill="none" stroke="#8B7053" stroke-width="1.205" width="4.833" height="4.837"/>
	<rect x="216.788" y="50.482" clip-path="url(#SVGID_2_)" fill="#FFFFFF" width="4.838" height="4.837"/>
	
		<rect x="216.788" y="50.482" clip-path="url(#SVGID_2_)" fill="none" stroke="#8B7053" stroke-width="1.205" width="4.838" height="4.837"/>
	<rect x="206.789" y="50.482" clip-path="url(#SVGID_2_)" fill="#FFFFFF" width="4.833" height="4.837"/>
	
		<rect x="206.789" y="50.482" clip-path="url(#SVGID_2_)" fill="none" stroke="#8B7053" stroke-width="1.205" width="4.833" height="4.837"/>
	<rect x="196.777" y="50.482" clip-path="url(#SVGID_2_)" fill="#FFFFFF" width="4.834" height="4.837"/>
	
		<rect x="196.777" y="50.482" clip-path="url(#SVGID_2_)" fill="none" stroke="#8B7053" stroke-width="1.205" width="4.834" height="4.837"/>
	<rect x="186.77" y="50.482" clip-path="url(#SVGID_2_)" fill="#FFFFFF" width="4.837" height="4.837"/>
	
		<rect x="186.77" y="50.482" clip-path="url(#SVGID_2_)" fill="none" stroke="#8B7053" stroke-width="1.205" width="4.837" height="4.837"/>
	<rect x="176.765" y="50.482" clip-path="url(#SVGID_2_)" fill="#FFFFFF" width="4.836" height="4.837"/>
	
		<rect x="176.765" y="50.482" clip-path="url(#SVGID_2_)" fill="none" stroke="#8B7053" stroke-width="1.205" width="4.836" height="4.837"/>
	<path clip-path="url(#SVGID_2_)" fill="#FFFFFF" d="M173.366,59.427H10.384c-0.453,0-0.819,0.367-0.819,0.82
		c0,0.452,0.366,0.816,0.819,0.816h162.982H185h162.981c0.452,0,0.815-0.364,0.815-0.816c0-0.453-0.363-0.82-0.815-0.82H185H173.366
		z"/>
	<path clip-path="url(#SVGID_2_)" fill="none" stroke="#8B7053" stroke-width="1.205" d="M173.366,59.427H10.384
		c-0.453,0-0.819,0.367-0.819,0.82c0,0.452,0.366,0.816,0.819,0.816h162.982H185h162.981c0.452,0,0.815-0.364,0.815-0.816
		c0-0.453-0.363-0.82-0.815-0.82H185H173.366z"/>
	<path clip-path="url(#SVGID_2_)" fill="#FFFFFF" d="M173.366,59.427H10.384c0,0,1.887-0.155,2.198-1.087
		c0.311-0.938,0.781-2.808,2.654-2.808h158.131H185c0,0,156.264-0.005,158.131-0.005c1.873,0,2.339,1.875,2.649,2.813
		c0.309,0.93,2.201,1.087,2.201,1.087H185H173.366z"/>
	<path clip-path="url(#SVGID_2_)" fill="none" stroke="#8B7053" stroke-width="1.205" d="M173.366,59.427H10.384
		c0,0,1.887-0.155,2.198-1.087c0.311-0.938,0.781-2.808,2.654-2.808h158.131H185c0,0,156.264-0.005,158.131-0.005
		c1.873,0,2.339,1.875,2.649,2.813c0.309,0.93,2.201,1.087,2.201,1.087H185H173.366z"/>
	<rect x="16.667" y="50.482" clip-path="url(#SVGID_2_)" fill="#FFFFFF" width="4.831" height="4.837"/>
	
		<rect x="16.667" y="50.482" clip-path="url(#SVGID_2_)" fill="none" stroke="#8B7053" stroke-width="1.205" width="4.831" height="4.837"/>
	<rect x="26.668" y="50.482" clip-path="url(#SVGID_2_)" fill="#FFFFFF" width="4.838" height="4.837"/>
	
		<rect x="26.668" y="50.482" clip-path="url(#SVGID_2_)" fill="none" stroke="#8B7053" stroke-width="1.205" width="4.838" height="4.837"/>
	<rect x="36.677" y="50.482" clip-path="url(#SVGID_2_)" fill="#FFFFFF" width="4.84" height="4.837"/>
	
		<rect x="36.677" y="50.482" clip-path="url(#SVGID_2_)" fill="none" stroke="#8B7053" stroke-width="1.205" width="4.84" height="4.837"/>
	<rect x="46.682" y="50.482" clip-path="url(#SVGID_2_)" fill="#FFFFFF" width="4.834" height="4.837"/>
	
		<rect x="46.682" y="50.482" clip-path="url(#SVGID_2_)" fill="none" stroke="#8B7053" stroke-width="1.205" width="4.834" height="4.837"/>
	<rect x="56.689" y="50.482" clip-path="url(#SVGID_2_)" fill="#FFFFFF" width="4.837" height="4.837"/>
	
		<rect x="56.689" y="50.482" clip-path="url(#SVGID_2_)" fill="none" stroke="#8B7053" stroke-width="1.205" width="4.837" height="4.837"/>
	<rect x="66.7" y="50.482" clip-path="url(#SVGID_2_)" fill="#FFFFFF" width="4.832" height="4.837"/>
	
		<rect x="66.7" y="50.482" clip-path="url(#SVGID_2_)" fill="none" stroke="#8B7053" stroke-width="1.205" width="4.832" height="4.837"/>
	<rect x="76.703" y="50.482" clip-path="url(#SVGID_2_)" fill="#FFFFFF" width="4.833" height="4.837"/>
	
		<rect x="76.703" y="50.482" clip-path="url(#SVGID_2_)" fill="none" stroke="#8B7053" stroke-width="1.205" width="4.833" height="4.837"/>
	<rect x="86.711" y="50.482" clip-path="url(#SVGID_2_)" fill="#FFFFFF" width="4.832" height="4.837"/>
	
		<rect x="86.711" y="50.482" clip-path="url(#SVGID_2_)" fill="none" stroke="#8B7053" stroke-width="1.205" width="4.832" height="4.837"/>
	<rect x="96.714" y="50.482" clip-path="url(#SVGID_2_)" fill="#FFFFFF" width="4.836" height="4.837"/>
	
		<rect x="96.714" y="50.482" clip-path="url(#SVGID_2_)" fill="none" stroke="#8B7053" stroke-width="1.205" width="4.836" height="4.837"/>
	<rect x="106.72" y="50.482" clip-path="url(#SVGID_2_)" fill="#FFFFFF" width="4.834" height="4.837"/>
	
		<rect x="106.72" y="50.482" clip-path="url(#SVGID_2_)" fill="none" stroke="#8B7053" stroke-width="1.205" width="4.834" height="4.837"/>
	<rect x="116.726" y="50.482" clip-path="url(#SVGID_2_)" fill="#FFFFFF" width="4.836" height="4.837"/>
	
		<rect x="116.726" y="50.482" clip-path="url(#SVGID_2_)" fill="none" stroke="#8B7053" stroke-width="1.205" width="4.836" height="4.837"/>
	<rect x="126.734" y="50.482" clip-path="url(#SVGID_2_)" fill="#FFFFFF" width="4.83" height="4.837"/>
	
		<rect x="126.734" y="50.482" clip-path="url(#SVGID_2_)" fill="none" stroke="#8B7053" stroke-width="1.205" width="4.83" height="4.837"/>
	<rect x="136.739" y="50.482" clip-path="url(#SVGID_2_)" fill="#FFFFFF" width="4.833" height="4.837"/>
	
		<rect x="136.739" y="50.482" clip-path="url(#SVGID_2_)" fill="none" stroke="#8B7053" stroke-width="1.205" width="4.833" height="4.837"/>
	<rect x="146.749" y="50.482" clip-path="url(#SVGID_2_)" fill="#FFFFFF" width="4.833" height="4.837"/>
	
		<rect x="146.749" y="50.482" clip-path="url(#SVGID_2_)" fill="none" stroke="#8B7053" stroke-width="1.205" width="4.833" height="4.837"/>
	<rect x="156.754" y="50.482" clip-path="url(#SVGID_2_)" fill="#FFFFFF" width="4.832" height="4.837"/>
	
		<rect x="156.754" y="50.482" clip-path="url(#SVGID_2_)" fill="none" stroke="#8B7053" stroke-width="1.205" width="4.832" height="4.837"/>
	<rect x="166.76" y="50.482" clip-path="url(#SVGID_2_)" fill="#FFFFFF" width="4.835" height="4.837"/>
	
		<rect x="166.76" y="50.482" clip-path="url(#SVGID_2_)" fill="none" stroke="#8B7053" stroke-width="1.205" width="4.835" height="4.837"/>
	<path clip-path="url(#SVGID_2_)" fill="#FFFFFF" d="M173.366,50.402H18.586c0,0-0.699-3.82,2.263-3.82h152.517H185h152.515
		c2.965,0,2.263,3.82,2.263,3.82H185H173.366z"/>
	<path clip-path="url(#SVGID_2_)" fill="none" stroke="#8B7053" stroke-width="1.205" d="M173.366,50.402H18.586
		c0,0-0.699-3.82,2.263-3.82h152.517H185h152.515c2.965,0,2.263,3.82,2.263,3.82H185H173.366z"/>
	<polygon clip-path="url(#SVGID_2_)" fill="#FFFFFF" points="173.366,11.427 16.667,11.427 16.667,16.21 173.366,16.21 185,16.21 
		341.701,16.21 341.701,11.427 185,11.427 	"/>
	<polygon clip-path="url(#SVGID_2_)" fill="none" stroke="#8B7053" stroke-width="1.205" points="173.366,11.427 16.667,11.427 
		16.667,16.21 173.366,16.21 185,16.21 341.701,16.21 341.701,11.427 185,11.427 	"/>
	<rect x="326.862" y="11.427" clip-path="url(#SVGID_2_)" fill="#FFFFFF" width="4.835" height="4.839"/>
	
		<rect x="326.862" y="11.427" clip-path="url(#SVGID_2_)" fill="none" stroke="#8B7053" stroke-width="1.205" width="4.835" height="4.839"/>
	<rect x="336.999" y="11.427" clip-path="url(#SVGID_2_)" fill="#FFFFFF" width="4.843" height="4.839"/>
	
		<rect x="336.999" y="11.427" clip-path="url(#SVGID_2_)" fill="none" stroke="#8B7053" stroke-width="1.205" width="4.843" height="4.839"/>
	<rect x="316.852" y="11.427" clip-path="url(#SVGID_2_)" fill="#FFFFFF" width="4.836" height="4.839"/>
	
		<rect x="316.852" y="11.427" clip-path="url(#SVGID_2_)" fill="none" stroke="#8B7053" stroke-width="1.205" width="4.836" height="4.839"/>
	<rect x="306.849" y="11.427" clip-path="url(#SVGID_2_)" fill="#FFFFFF" width="4.831" height="4.839"/>
	
		<rect x="306.849" y="11.427" clip-path="url(#SVGID_2_)" fill="none" stroke="#8B7053" stroke-width="1.205" width="4.831" height="4.839"/>
	<rect x="296.842" y="11.427" clip-path="url(#SVGID_2_)" fill="#FFFFFF" width="4.833" height="4.839"/>
	
		<rect x="296.842" y="11.427" clip-path="url(#SVGID_2_)" fill="none" stroke="#8B7053" stroke-width="1.205" width="4.833" height="4.839"/>
	<rect x="286.836" y="11.427" clip-path="url(#SVGID_2_)" fill="#FFFFFF" width="4.83" height="4.839"/>
	
		<rect x="286.836" y="11.427" clip-path="url(#SVGID_2_)" fill="none" stroke="#8B7053" stroke-width="1.205" width="4.83" height="4.839"/>
	<rect x="276.831" y="11.427" clip-path="url(#SVGID_2_)" fill="#FFFFFF" width="4.836" height="4.839"/>
	
		<rect x="276.831" y="11.427" clip-path="url(#SVGID_2_)" fill="none" stroke="#8B7053" stroke-width="1.205" width="4.836" height="4.839"/>
	<rect x="266.822" y="11.427" clip-path="url(#SVGID_2_)" fill="#FFFFFF" width="4.836" height="4.837"/>
	
		<rect x="266.822" y="11.427" clip-path="url(#SVGID_2_)" fill="none" stroke="#8B7053" stroke-width="1.205" width="4.836" height="4.837"/>
	<rect x="256.812" y="11.427" clip-path="url(#SVGID_2_)" fill="#FFFFFF" width="4.836" height="4.837"/>
	
		<rect x="256.812" y="11.427" clip-path="url(#SVGID_2_)" fill="none" stroke="#8B7053" stroke-width="1.205" width="4.836" height="4.837"/>
	<rect x="246.811" y="11.427" clip-path="url(#SVGID_2_)" fill="#FFFFFF" width="4.834" height="4.837"/>
	
		<rect x="246.811" y="11.427" clip-path="url(#SVGID_2_)" fill="none" stroke="#8B7053" stroke-width="1.205" width="4.834" height="4.837"/>
	<rect x="236.804" y="11.427" clip-path="url(#SVGID_2_)" fill="#FFFFFF" width="4.837" height="4.837"/>
	
		<rect x="236.804" y="11.427" clip-path="url(#SVGID_2_)" fill="none" stroke="#8B7053" stroke-width="1.205" width="4.837" height="4.837"/>
	<rect x="226.798" y="11.427" clip-path="url(#SVGID_2_)" fill="#FFFFFF" width="4.833" height="4.837"/>
	
		<rect x="226.798" y="11.427" clip-path="url(#SVGID_2_)" fill="none" stroke="#8B7053" stroke-width="1.205" width="4.833" height="4.837"/>
	<rect x="216.788" y="11.427" clip-path="url(#SVGID_2_)" fill="#FFFFFF" width="4.838" height="4.837"/>
	
		<rect x="216.788" y="11.427" clip-path="url(#SVGID_2_)" fill="none" stroke="#8B7053" stroke-width="1.205" width="4.838" height="4.837"/>
	<rect x="206.789" y="11.427" clip-path="url(#SVGID_2_)" fill="#FFFFFF" width="4.833" height="4.837"/>
	
		<rect x="206.789" y="11.427" clip-path="url(#SVGID_2_)" fill="none" stroke="#8B7053" stroke-width="1.205" width="4.833" height="4.837"/>
	<rect x="196.777" y="11.427" clip-path="url(#SVGID_2_)" fill="#FFFFFF" width="4.834" height="4.837"/>
	
		<rect x="196.777" y="11.427" clip-path="url(#SVGID_2_)" fill="none" stroke="#8B7053" stroke-width="1.205" width="4.834" height="4.837"/>
	<rect x="186.77" y="11.427" clip-path="url(#SVGID_2_)" fill="#FFFFFF" width="4.837" height="4.837"/>
	
		<rect x="186.77" y="11.427" clip-path="url(#SVGID_2_)" fill="none" stroke="#8B7053" stroke-width="1.205" width="4.837" height="4.837"/>
	<rect x="176.765" y="11.427" clip-path="url(#SVGID_2_)" fill="#FFFFFF" width="4.836" height="4.837"/>
	
		<rect x="176.765" y="11.427" clip-path="url(#SVGID_2_)" fill="none" stroke="#8B7053" stroke-width="1.205" width="4.836" height="4.837"/>
	<path clip-path="url(#SVGID_2_)" fill="#FFFFFF" d="M173.366,7.318H10.384c-0.453,0-0.819-0.367-0.819-0.82
		s0.366-0.817,0.819-0.817h162.982H185h162.981c0.452,0,0.815,0.364,0.815,0.817s-0.363,0.821-0.815,0.821L185,7.318H173.366z"/>
	<path clip-path="url(#SVGID_2_)" fill="none" stroke="#8B7053" stroke-width="1.205" d="M173.366,7.318H10.384
		c-0.453,0-0.819-0.367-0.819-0.82s0.366-0.817,0.819-0.817h162.982H185h162.981c0.452,0,0.815,0.364,0.815,0.817
		s-0.363,0.821-0.815,0.821L185,7.318H173.366z"/>
	<path clip-path="url(#SVGID_2_)" fill="#FFFFFF" d="M173.366,7.318H10.384c0,0,1.887,0.155,2.198,1.086
		c0.311,0.939,0.781,2.809,2.654,2.809h158.131H185c0,0,156.264,0.004,158.131,0.004c1.873,0,2.339-1.874,2.649-2.813
		c0.309-0.928,2.201-1.085,2.201-1.085L185,7.318H173.366z"/>
	<path clip-path="url(#SVGID_2_)" fill="none" stroke="#8B7053" stroke-width="1.205" d="M173.366,7.318H10.384
		c0,0,1.887,0.155,2.198,1.086c0.311,0.939,0.781,2.809,2.654,2.809h158.131H185c0,0,156.264,0.004,158.131,0.004
		c1.873,0,2.339-1.874,2.649-2.813c0.309-0.928,2.201-1.085,2.201-1.085L185,7.318H173.366z"/>
	<rect x="16.667" y="11.427" clip-path="url(#SVGID_2_)" fill="#FFFFFF" width="4.831" height="4.837"/>
	
		<rect x="16.667" y="11.427" clip-path="url(#SVGID_2_)" fill="none" stroke="#8B7053" stroke-width="1.205" width="4.831" height="4.837"/>
	<rect x="26.668" y="11.427" clip-path="url(#SVGID_2_)" fill="#FFFFFF" width="4.838" height="4.837"/>
	
		<rect x="26.668" y="11.427" clip-path="url(#SVGID_2_)" fill="none" stroke="#8B7053" stroke-width="1.205" width="4.838" height="4.837"/>
	<rect x="36.677" y="11.427" clip-path="url(#SVGID_2_)" fill="#FFFFFF" width="4.84" height="4.837"/>
	
		<rect x="36.677" y="11.427" clip-path="url(#SVGID_2_)" fill="none" stroke="#8B7053" stroke-width="1.205" width="4.84" height="4.837"/>
	<rect x="46.682" y="11.427" clip-path="url(#SVGID_2_)" fill="#FFFFFF" width="4.834" height="4.837"/>
	
		<rect x="46.682" y="11.427" clip-path="url(#SVGID_2_)" fill="none" stroke="#8B7053" stroke-width="1.205" width="4.834" height="4.837"/>
	<rect x="56.689" y="11.427" clip-path="url(#SVGID_2_)" fill="#FFFFFF" width="4.837" height="4.837"/>
	
		<rect x="56.689" y="11.427" clip-path="url(#SVGID_2_)" fill="none" stroke="#8B7053" stroke-width="1.205" width="4.837" height="4.837"/>
	<rect x="66.7" y="11.427" clip-path="url(#SVGID_2_)" fill="#FFFFFF" width="4.832" height="4.837"/>
	
		<rect x="66.7" y="11.427" clip-path="url(#SVGID_2_)" fill="none" stroke="#8B7053" stroke-width="1.205" width="4.832" height="4.837"/>
	<rect x="76.703" y="11.427" clip-path="url(#SVGID_2_)" fill="#FFFFFF" width="4.833" height="4.837"/>
	
		<rect x="76.703" y="11.427" clip-path="url(#SVGID_2_)" fill="none" stroke="#8B7053" stroke-width="1.205" width="4.833" height="4.837"/>
	<rect x="86.711" y="11.427" clip-path="url(#SVGID_2_)" fill="#FFFFFF" width="4.832" height="4.837"/>
	
		<rect x="86.711" y="11.427" clip-path="url(#SVGID_2_)" fill="none" stroke="#8B7053" stroke-width="1.205" width="4.832" height="4.837"/>
	<rect x="96.714" y="11.427" clip-path="url(#SVGID_2_)" fill="#FFFFFF" width="4.836" height="4.837"/>
	
		<rect x="96.714" y="11.427" clip-path="url(#SVGID_2_)" fill="none" stroke="#8B7053" stroke-width="1.205" width="4.836" height="4.837"/>
	<rect x="106.72" y="11.427" clip-path="url(#SVGID_2_)" fill="#FFFFFF" width="4.834" height="4.837"/>
	
		<rect x="106.72" y="11.427" clip-path="url(#SVGID_2_)" fill="none" stroke="#8B7053" stroke-width="1.205" width="4.834" height="4.837"/>
	<rect x="116.726" y="11.427" clip-path="url(#SVGID_2_)" fill="#FFFFFF" width="4.836" height="4.837"/>
	
		<rect x="116.726" y="11.427" clip-path="url(#SVGID_2_)" fill="none" stroke="#8B7053" stroke-width="1.205" width="4.836" height="4.837"/>
	<rect x="126.734" y="11.427" clip-path="url(#SVGID_2_)" fill="#FFFFFF" width="4.83" height="4.837"/>
	
		<rect x="126.734" y="11.427" clip-path="url(#SVGID_2_)" fill="none" stroke="#8B7053" stroke-width="1.205" width="4.83" height="4.837"/>
	<rect x="136.739" y="11.427" clip-path="url(#SVGID_2_)" fill="#FFFFFF" width="4.833" height="4.837"/>
	
		<rect x="136.739" y="11.427" clip-path="url(#SVGID_2_)" fill="none" stroke="#8B7053" stroke-width="1.205" width="4.833" height="4.837"/>
	<rect x="146.749" y="11.427" clip-path="url(#SVGID_2_)" fill="#FFFFFF" width="4.833" height="4.837"/>
	
		<rect x="146.749" y="11.427" clip-path="url(#SVGID_2_)" fill="none" stroke="#8B7053" stroke-width="1.205" width="4.833" height="4.837"/>
	<rect x="156.754" y="11.427" clip-path="url(#SVGID_2_)" fill="#FFFFFF" width="4.832" height="4.837"/>
	
		<rect x="156.754" y="11.427" clip-path="url(#SVGID_2_)" fill="none" stroke="#8B7053" stroke-width="1.205" width="4.832" height="4.837"/>
	<rect x="166.76" y="11.427" clip-path="url(#SVGID_2_)" fill="#FFFFFF" width="4.835" height="4.837"/>
	
		<rect x="166.76" y="11.427" clip-path="url(#SVGID_2_)" fill="none" stroke="#8B7053" stroke-width="1.205" width="4.835" height="4.837"/>
	<path clip-path="url(#SVGID_2_)" fill="#FFFFFF" d="M173.366,16.343H18.586c0,0-0.699,3.821,2.263,3.821h152.517H185h152.515
		c2.965,0,2.263-3.821,2.263-3.821H185H173.366z"/>
	<path clip-path="url(#SVGID_2_)" fill="none" stroke="#8B7053" stroke-width="1.205" d="M173.366,16.343H18.586
		c0,0-0.699,3.821,2.263,3.821h152.517H185h152.515c2.965,0,2.263-3.821,2.263-3.821H185H173.366z"/>
	<rect x="25.522" y="20.165" clip-path="url(#SVGID_2_)" fill="#FFFFFF" width="307.321" height="26.382"/>
	
		<rect x="25.522" y="20.165" clip-path="url(#SVGID_2_)" fill="none" stroke="#8B7053" stroke-width="1.205" width="307.321" height="26.382"/>
	<rect x="27.445" y="21.641" clip-path="url(#SVGID_2_)" fill="#FFFFFF" width="303.471" height="23.394"/>
	
		<rect x="27.445" y="21.641" clip-path="url(#SVGID_2_)" fill="none" stroke="#8B7053" stroke-width="1.205" width="303.471" height="23.394"/>
	<path clip-path="url(#SVGID_2_)" fill="#8B7053" d="M45.961,39.25c0,0.259-0.125,0.401-0.379,0.401
		c-0.244,0-0.338-0.143-0.338-0.401v-4.847h-7.656v4.847c0,0.259-0.123,0.401-0.379,0.401c-0.242,0-0.372-0.143-0.372-0.401V28.615
		c0-0.271,0.13-0.387,0.372-0.387c0.256,0,0.379,0.116,0.379,0.387v5.055h7.656v-5.055c0-0.271,0.094-0.387,0.338-0.387
		c0.254,0,0.379,0.116,0.379,0.387V39.25z"/>
	<path clip-path="url(#SVGID_2_)" fill="none" stroke="#8B7053" stroke-width="1.205" d="M45.961,39.25
		c0,0.259-0.125,0.401-0.379,0.401c-0.244,0-0.338-0.143-0.338-0.401v-4.847h-7.656v4.847c0,0.259-0.123,0.401-0.379,0.401
		c-0.242,0-0.372-0.143-0.372-0.401V28.615c0-0.271,0.13-0.387,0.372-0.387c0.256,0,0.379,0.116,0.379,0.387v5.055h7.656v-5.055
		c0-0.271,0.094-0.387,0.338-0.387c0.254,0,0.379,0.116,0.379,0.387V39.25z"/>
	<path clip-path="url(#SVGID_2_)" fill="#8B7053" d="M62.472,39.617c-3.042,0-5.563-2.535-5.563-5.692
		c0-3.124,2.521-5.678,5.563-5.678c3.146,0,5.509,2.728,5.509,5.678C67.98,37.034,65.506,39.617,62.472,39.617 M62.472,28.982
		c-2.708,0-4.795,2.388-4.795,4.943c0,2.713,2.181,4.945,4.795,4.945c2.761,0,4.771-2.392,4.771-4.945
		C67.243,31.247,65.058,28.982,62.472,28.982"/>
	<path clip-path="url(#SVGID_2_)" fill="none" stroke="#8B7053" stroke-width="1.205" d="M62.472,39.617
		c-3.042,0-5.563-2.535-5.563-5.692c0-3.124,2.521-5.678,5.563-5.678c3.146,0,5.509,2.728,5.509,5.678
		C67.98,37.034,65.506,39.617,62.472,39.617z M62.472,28.982c-2.708,0-4.795,2.388-4.795,4.943c0,2.713,2.181,4.945,4.795,4.945
		c2.761,0,4.771-2.392,4.771-4.945C67.243,31.247,65.058,28.982,62.472,28.982z"/>
	<path clip-path="url(#SVGID_2_)" fill="#8B7053" d="M78.7,28.662c0-0.222,0.158-0.385,0.352-0.385c0.256,0,0.364,0.13,0.364,0.385
		v6.397c0,2.005,1.134,3.971,3.451,3.971c1.13,0,2.103-0.544,2.724-1.407c0.446-0.603,0.731-1.34,0.766-2.15v-6.812
		c0-0.222,0.098-0.385,0.32-0.385c0.237,0,0.35,0.13,0.35,0.385v6.859c0,2.151-1.708,4.257-4.16,4.257
		c-2.396,0-4.167-1.834-4.167-4.594V28.662z"/>
	<path clip-path="url(#SVGID_2_)" fill="none" stroke="#8B7053" stroke-width="1.205" d="M78.7,28.662
		c0-0.222,0.158-0.385,0.352-0.385c0.256,0,0.364,0.13,0.364,0.385v6.397c0,2.005,1.134,3.971,3.451,3.971
		c1.13,0,2.103-0.544,2.724-1.407c0.446-0.603,0.731-1.34,0.766-2.15v-6.812c0-0.222,0.098-0.385,0.32-0.385
		c0.237,0,0.35,0.13,0.35,0.385v6.859c0,2.151-1.708,4.257-4.16,4.257c-2.396,0-4.167-1.834-4.167-4.594V28.662z"/>
	<path clip-path="url(#SVGID_2_)" fill="#8B7053" d="M102.151,39.093c-0.449,0.304-0.986,0.464-1.545,0.464
		c-0.353,0-0.91-0.067-1.356-0.319c-0.495-0.271-0.734-0.527-0.734-0.768c0-0.207,0.163-0.366,0.35-0.366
		c0.13,0,0.286,0.127,0.559,0.336c0.399,0.286,0.829,0.381,1.227,0.381c1.198,0,2.078-1.068,2.078-2.152
		c0-1.004-0.831-1.708-1.707-2.088c-0.863-0.355-1.585-0.528-2.267-1.166c-0.574-0.578-0.859-1.195-0.859-1.961
		c0-1.584,1.367-2.999,2.901-2.999c0.382,0,0.877,0.048,1.354,0.351c0.494,0.287,0.719,0.522,0.719,0.717
		c0,0.224-0.159,0.364-0.317,0.364c-0.111,0-0.274-0.14-0.545-0.335c-0.412-0.268-0.828-0.38-1.227-0.38
		c-1.163,0-2.102,1.18-2.102,2.265c0,0.542,0.157,0.927,0.473,1.258c0.496,0.559,1.342,0.879,2.014,1.136
		c1.324,0.511,2.343,1.37,2.343,2.763C103.509,37.595,102.964,38.547,102.151,39.093"/>
	<path clip-path="url(#SVGID_2_)" fill="none" stroke="#8B7053" stroke-width="1.205" d="M102.151,39.093
		c-0.449,0.304-0.986,0.464-1.545,0.464c-0.353,0-0.91-0.067-1.356-0.319c-0.495-0.271-0.734-0.527-0.734-0.768
		c0-0.207,0.163-0.366,0.35-0.366c0.13,0,0.286,0.127,0.559,0.336c0.399,0.286,0.829,0.381,1.227,0.381
		c1.198,0,2.078-1.068,2.078-2.152c0-1.004-0.831-1.708-1.707-2.088c-0.863-0.355-1.585-0.528-2.267-1.166
		c-0.574-0.578-0.859-1.195-0.859-1.961c0-1.584,1.367-2.999,2.901-2.999c0.382,0,0.877,0.048,1.354,0.351
		c0.494,0.287,0.719,0.522,0.719,0.717c0,0.224-0.159,0.364-0.317,0.364c-0.111,0-0.274-0.14-0.545-0.335
		c-0.412-0.268-0.828-0.38-1.227-0.38c-1.163,0-2.102,1.18-2.102,2.265c0,0.542,0.157,0.927,0.473,1.258
		c0.496,0.559,1.342,0.879,2.014,1.136c1.324,0.511,2.343,1.37,2.343,2.763C103.509,37.595,102.964,38.547,102.151,39.093z"/>
	<path clip-path="url(#SVGID_2_)" fill="#8B7053" d="M119.503,39.489h-4.394c-0.205,0-0.368-0.157-0.368-0.379V28.773
		c0-0.269,0.117-0.382,0.368-0.382h4.275c0.257,0,0.371,0.114,0.371,0.382c0,0.237-0.113,0.371-0.371,0.371h-3.887v4.478h3.343
		c0.209,0,0.386,0.177,0.386,0.402c0,0.203-0.177,0.367-0.386,0.367h-3.343v4.354h4.006c0.219,0,0.393,0.141,0.393,0.365
		C119.896,39.333,119.722,39.489,119.503,39.489"/>
	<path clip-path="url(#SVGID_2_)" fill="none" stroke="#8B7053" stroke-width="1.205" d="M119.503,39.489h-4.394
		c-0.205,0-0.368-0.157-0.368-0.379V28.773c0-0.269,0.117-0.382,0.368-0.382h4.275c0.257,0,0.371,0.114,0.371,0.382
		c0,0.237-0.113,0.371-0.371,0.371h-3.887v4.478h3.343c0.209,0,0.386,0.177,0.386,0.402c0,0.203-0.177,0.367-0.386,0.367h-3.343
		v4.354h4.006c0.219,0,0.393,0.141,0.393,0.365C119.896,39.333,119.722,39.489,119.503,39.489z"/>
	<path clip-path="url(#SVGID_2_)" fill="#8B7053" d="M149.457,39.617c-3.052,0-5.571-2.535-5.571-5.692
		c0-3.124,2.519-5.678,5.571-5.678c3.134,0,5.496,2.728,5.496,5.678C154.952,37.034,152.483,39.617,149.457,39.617 M149.457,28.982
		c-2.717,0-4.805,2.388-4.805,4.943c0,2.713,2.184,4.945,4.805,4.945c2.754,0,4.764-2.392,4.764-4.945
		C154.221,31.247,152.035,28.982,149.457,28.982"/>
	<path clip-path="url(#SVGID_2_)" fill="none" stroke="#8B7053" stroke-width="1.205" d="M149.457,39.617
		c-3.052,0-5.571-2.535-5.571-5.692c0-3.124,2.519-5.678,5.571-5.678c3.134,0,5.496,2.728,5.496,5.678
		C154.952,37.034,152.483,39.617,149.457,39.617z M149.457,28.982c-2.717,0-4.805,2.388-4.805,4.943
		c0,2.713,2.184,4.945,4.805,4.945c2.754,0,4.764-2.392,4.764-4.945C154.221,31.247,152.035,28.982,149.457,28.982z"/>
	<path clip-path="url(#SVGID_2_)" fill="#8B7053" d="M170.482,29.144h-3.849v4.478h3.749c0.21,0,0.383,0.177,0.383,0.401
		c0,0.204-0.173,0.367-0.383,0.367h-3.749v4.88c0,0.219-0.177,0.398-0.382,0.398c-0.209,0-0.363-0.179-0.363-0.398V28.772
		c0-0.223,0.154-0.381,0.363-0.381h4.23c0.206,0,0.366,0.159,0.366,0.381C170.849,28.982,170.688,29.144,170.482,29.144"/>
	<path clip-path="url(#SVGID_2_)" fill="none" stroke="#8B7053" stroke-width="1.205" d="M170.482,29.144h-3.849v4.478h3.749
		c0.21,0,0.383,0.177,0.383,0.401c0,0.204-0.173,0.367-0.383,0.367h-3.749v4.88c0,0.219-0.177,0.398-0.382,0.398
		c-0.209,0-0.363-0.179-0.363-0.398V28.772c0-0.223,0.154-0.381,0.363-0.381h4.23c0.206,0,0.366,0.159,0.366,0.381
		C170.849,28.982,170.688,29.144,170.482,29.144z"/>
	<path clip-path="url(#SVGID_2_)" fill="#8B7053" d="M204.614,39.25c0,0.259-0.128,0.401-0.383,0.401
		c-0.239,0-0.336-0.143-0.336-0.401v-4.847h-7.656v4.847c0,0.259-0.127,0.401-0.384,0.401c-0.238,0-0.368-0.143-0.368-0.401V28.615
		c0-0.271,0.13-0.387,0.368-0.387c0.257,0,0.384,0.116,0.384,0.387v5.055h7.656v-5.055c0-0.271,0.097-0.387,0.336-0.387
		c0.255,0,0.383,0.116,0.383,0.387V39.25z"/>
	<path clip-path="url(#SVGID_2_)" fill="none" stroke="#8B7053" stroke-width="1.205" d="M204.614,39.25
		c0,0.259-0.128,0.401-0.383,0.401c-0.239,0-0.336-0.143-0.336-0.401v-4.847h-7.656v4.847c0,0.259-0.127,0.401-0.384,0.401
		c-0.238,0-0.368-0.143-0.368-0.401V28.615c0-0.271,0.13-0.387,0.368-0.387c0.257,0,0.384,0.116,0.384,0.387v5.055h7.656v-5.055
		c0-0.271,0.097-0.387,0.336-0.387c0.255,0,0.383,0.116,0.383,0.387V39.25z"/>
	<path clip-path="url(#SVGID_2_)" fill="#8B7053" d="M215.477,39.031l5.349-10.468c0.188-0.365,0.303-0.428,0.396-0.428
		c0.163,0,0.319,0.142,0.399,0.305l5.456,10.591c0.045,0.05,0.066,0.125,0.066,0.175c0,0.21-0.21,0.399-0.403,0.399
		c-0.125,0-0.22-0.096-0.303-0.208v0.019l-2.406-4.613h-5.6l-2.378,4.594c-0.062,0.112-0.141,0.208-0.288,0.208
		c-0.206,0-0.351-0.16-0.351-0.367C215.415,39.184,215.435,39.093,215.477,39.031 M223.675,34.085l-2.437-4.85l-2.458,4.85H223.675z
		"/>
	<path clip-path="url(#SVGID_2_)" fill="none" stroke="#8B7053" stroke-width="1.205" d="M215.477,39.031l5.349-10.468
		c0.188-0.365,0.303-0.428,0.396-0.428c0.163,0,0.319,0.142,0.399,0.305l5.456,10.591c0.045,0.05,0.066,0.125,0.066,0.175
		c0,0.21-0.21,0.399-0.403,0.399c-0.125,0-0.22-0.096-0.303-0.208v0.019l-2.406-4.613h-5.6l-2.378,4.594
		c-0.062,0.112-0.141,0.208-0.288,0.208c-0.206,0-0.351-0.16-0.351-0.367C215.415,39.184,215.435,39.093,215.477,39.031z
		 M223.675,34.085l-2.437-4.85l-2.458,4.85H223.675z"/>
	<path clip-path="url(#SVGID_2_)" fill="#8B7053" d="M245.436,30.593c-0.077,0-0.157-0.05-0.27-0.143
		c-0.94-0.866-1.914-1.421-3.24-1.421c-2.705,0-4.94,2.378-4.94,4.944c0,2.583,2.282,4.994,4.834,4.994
		c1.226,0,2.068-0.287,3.429-1.437c0.095-0.078,0.188-0.109,0.264-0.109c0.196,0,0.361,0.143,0.361,0.333
		c0,0.462-1.236,1.228-1.918,1.518c-0.703,0.286-1.454,0.444-2.136,0.444c-3.128,0-5.602-2.761-5.602-5.71
		c0-3.11,2.636-5.728,5.602-5.728c1.465,0,2.965,0.593,3.874,1.645c0.079,0.095,0.121,0.192,0.121,0.253
		C245.815,30.403,245.631,30.593,245.436,30.593"/>
	<path clip-path="url(#SVGID_2_)" fill="none" stroke="#8B7053" stroke-width="1.205" d="M245.436,30.593
		c-0.077,0-0.157-0.05-0.27-0.143c-0.94-0.866-1.914-1.421-3.24-1.421c-2.705,0-4.94,2.378-4.94,4.944
		c0,2.583,2.282,4.994,4.834,4.994c1.226,0,2.068-0.287,3.429-1.437c0.095-0.078,0.188-0.109,0.264-0.109
		c0.196,0,0.361,0.143,0.361,0.333c0,0.462-1.236,1.228-1.918,1.518c-0.703,0.286-1.454,0.444-2.136,0.444
		c-3.128,0-5.602-2.761-5.602-5.71c0-3.11,2.636-5.728,5.602-5.728c1.465,0,2.965,0.593,3.874,1.645
		c0.079,0.095,0.121,0.192,0.121,0.253C245.815,30.403,245.631,30.593,245.436,30.593z"/>
	<path clip-path="url(#SVGID_2_)" fill="#8B7053" d="M263.195,29.144l-4.72,4.861l4.704,5.075c0.062,0.076,0.112,0.158,0.112,0.267
		c0,0.193-0.173,0.382-0.399,0.382c-0.015,0-0.063,0-0.094-0.014c-0.066-0.017-0.099-0.047-0.224-0.206l-4.61-4.977l-0.495,0.555
		v4.259c0,0.21-0.11,0.368-0.367,0.368c-0.254,0-0.382-0.111-0.382-0.368V28.632c0-0.241,0.128-0.37,0.382-0.37
		c0.193,0,0.367,0.16,0.367,0.37v5.391l5.198-5.391c0.078-0.083,0.178-0.128,0.241-0.128c0.224,0,0.402,0.189,0.402,0.398
		C263.311,28.997,263.241,29.076,263.195,29.144"/>
	<path clip-path="url(#SVGID_2_)" fill="none" stroke="#8B7053" stroke-width="1.205" d="M263.195,29.144l-4.72,4.861l4.704,5.075
		c0.062,0.076,0.112,0.158,0.112,0.267c0,0.193-0.173,0.382-0.399,0.382c-0.015,0-0.063,0-0.094-0.014
		c-0.066-0.017-0.099-0.047-0.224-0.206l-4.61-4.977l-0.495,0.555v4.259c0,0.21-0.11,0.368-0.367,0.368
		c-0.254,0-0.382-0.111-0.382-0.368V28.632c0-0.241,0.128-0.37,0.382-0.37c0.193,0,0.367,0.16,0.367,0.37v5.391l5.198-5.391
		c0.078-0.083,0.178-0.128,0.241-0.128c0.224,0,0.402,0.189,0.402,0.398C263.311,28.997,263.241,29.076,263.195,29.144z"/>
	<path clip-path="url(#SVGID_2_)" fill="#8B7053" d="M284.447,39.128c0,0.218-0.177,0.36-0.381,0.36c-0.128,0-0.19-0.044-0.38-0.265
		l-8.744-9.561v9.651c0,0.195-0.188,0.369-0.398,0.369c-0.239,0-0.367-0.127-0.367-0.369V28.723c0-0.238,0.188-0.4,0.394-0.4
		c0.1,0,0.214,0.085,0.339,0.21l8.836,9.684v-9.509c0-0.203,0.147-0.413,0.335-0.413c0.19,0,0.367,0.174,0.367,0.384V39.128z"/>
	<path clip-path="url(#SVGID_2_)" fill="none" stroke="#8B7053" stroke-width="1.205" d="M284.447,39.128
		c0,0.218-0.177,0.36-0.381,0.36c-0.128,0-0.19-0.044-0.38-0.265l-8.744-9.561v9.651c0,0.195-0.188,0.369-0.398,0.369
		c-0.239,0-0.367-0.127-0.367-0.369V28.723c0-0.238,0.188-0.4,0.394-0.4c0.1,0,0.214,0.085,0.339,0.21l8.836,9.684v-9.509
		c0-0.203,0.147-0.413,0.335-0.413c0.19,0,0.367,0.174,0.367,0.384V39.128z"/>
	<path clip-path="url(#SVGID_2_)" fill="#8B7053" d="M300.865,39.489h-4.384c-0.211,0-0.369-0.157-0.369-0.379V28.773
		c0-0.269,0.112-0.382,0.369-0.382h4.27c0.256,0,0.371,0.114,0.371,0.382c0,0.237-0.115,0.371-0.371,0.371h-3.891v4.478h3.352
		c0.207,0,0.384,0.177,0.384,0.402c0,0.203-0.177,0.367-0.384,0.367h-3.352v4.354h4.005c0.225,0,0.396,0.141,0.396,0.365
		C301.261,39.333,301.089,39.489,300.865,39.489"/>
	<path clip-path="url(#SVGID_2_)" fill="none" stroke="#8B7053" stroke-width="1.205" d="M300.865,39.489h-4.384
		c-0.211,0-0.369-0.157-0.369-0.379V28.773c0-0.269,0.112-0.382,0.369-0.382h4.27c0.256,0,0.371,0.114,0.371,0.382
		c0,0.237-0.115,0.371-0.371,0.371h-3.891v4.478h3.352c0.207,0,0.384,0.177,0.384,0.402c0,0.203-0.177,0.367-0.384,0.367h-3.352
		v4.354h4.005c0.225,0,0.396,0.141,0.396,0.365C301.261,39.333,301.089,39.489,300.865,39.489z"/>
	<path clip-path="url(#SVGID_2_)" fill="#8B7053" d="M311.97,28.277c0.128,0,0.211,0.045,0.289,0.146l4.325,5.601l4.31-5.601
		c0.057-0.11,0.173-0.16,0.249-0.16c0.225,0,0.385,0.193,0.385,0.399c0,0.045-0.033,0.157-0.096,0.222l-4.514,5.854v4.532
		c0,0.239-0.131,0.381-0.363,0.381c-0.26,0-0.399-0.142-0.399-0.381v-4.532l-4.454-5.836c-0.066-0.083-0.078-0.163-0.078-0.24
		C311.624,28.456,311.76,28.277,311.97,28.277"/>
	<path clip-path="url(#SVGID_2_)" fill="none" stroke="#8B7053" stroke-width="1.205" d="M311.97,28.277
		c0.128,0,0.211,0.045,0.289,0.146l4.325,5.601l4.31-5.601c0.057-0.11,0.173-0.16,0.249-0.16c0.225,0,0.385,0.193,0.385,0.399
		c0,0.045-0.033,0.157-0.096,0.222l-4.514,5.854v4.532c0,0.239-0.131,0.381-0.363,0.381c-0.26,0-0.399-0.142-0.399-0.381v-4.532
		l-4.454-5.836c-0.066-0.083-0.078-0.163-0.078-0.24C311.624,28.456,311.76,28.277,311.97,28.277z"/>
</g>
</svg>
